<?xml version="1.0" standalone="no"?>
<!DOCTYPE svg PUBLIC "-//W3C//DTD SVG 20010904//EN"
 "http://www.w3.org/TR/2001/REC-SVG-20010904/DTD/svg10.dtd">
<svg version="1.0" xmlns="http://www.w3.org/2000/svg"
 width="512.000000pt" height="512.000000pt" viewBox="0 0 512.000000 512.000000"
 preserveAspectRatio="xMidYMid meet">
<metadata>
Created by potrace 1.14, written by Peter Selinger 2001-2017
</metadata>
<g transform="translate(0.000000,512.000000) scale(0.100000,-0.100000)"
fill="#000000" stroke="none">
<path d="M2210 5104 c-86 -15 -136 -24 -165 -29 -40 -6 -152 -35 -193 -49 -23
-9 -43 -15 -45 -14 -1 1 -27 -7 -57 -17 -30 -11 -57 -19 -60 -20 -31 -3 -275
-116 -383 -177 -127 -72 -294 -188 -406 -284 -41 -35 -212 -205 -261 -260
-174 -192 -360 -498 -464 -762 -34 -86 -93 -276 -102 -330 -3 -13 -11 -52 -19
-86 -8 -33 -17 -88 -21 -121 -3 -33 -8 -63 -9 -66 -8 -12 -18 -191 -18 -314 0
-122 9 -275 18 -320 3 -11 7 -37 10 -57 12 -84 16 -114 21 -130 5 -17 11 -43
19 -89 3 -14 11 -44 19 -67 8 -23 13 -42 11 -42 -6 0 80 -238 110 -305 59
-131 139 -284 164 -312 6 -7 11 -15 11 -18 0 -7 96 -150 115 -172 5 -6 21 -26
35 -44 100 -133 267 -306 390 -404 41 -33 81 -66 89 -73 26 -25 185 -129 281
-183 94 -54 311 -159 329 -159 4 0 26 -8 47 -17 22 -9 44 -18 49 -20 6 -1 48
-14 95 -29 113 -35 244 -65 340 -79 25 -3 72 -10 105 -15 83 -11 113 -13 325
-13 102 0 217 5 255 12 39 6 88 14 110 17 75 10 94 13 132 23 21 6 49 12 63
15 51 9 187 49 274 81 604 220 1113 667 1405 1238 61 118 138 297 146 338 2 8
10 32 19 52 8 21 15 40 16 42 0 3 0 6 1 8 0 1 2 9 4 17 1 8 8 35 15 60 7 25
14 52 15 60 2 8 8 35 14 60 14 63 20 96 27 160 3 30 8 58 10 61 8 14 18 199
17 331 -1 127 -13 275 -29 358 -3 14 -7 36 -8 50 -8 63 -40 194 -68 285 -18
55 -32 102 -33 105 -3 14 -28 86 -34 95 -3 6 -6 16 -8 24 -4 31 -167 343 -224
431 -57 87 -173 242 -224 298 -31 34 -199 202 -242 242 -53 50 -221 180 -231
180 -5 0 -17 9 -27 20 -10 11 -24 20 -32 20 -7 0 -13 5 -13 10 0 6 -4 10 -10
10 -5 0 -37 18 -71 40 -34 22 -68 40 -75 40 -7 0 -14 4 -16 8 -5 12 -186 98
-288 137 -148 57 -356 115 -460 130 -25 4 -63 11 -85 17 -65 17 -635 19 -725
2z"/>
</g>
</svg>
